<svg width="1440" height="900" viewBox="0 0 1440 900" fill="none" xmlns="http://www.w3.org/2000/svg">
<rect opacity="0.4" x="149.193" y="480" width="37.4737" height="464" transform="rotate(44.3222 149.193 480)" fill="#5063EE"/>
<rect opacity="0.4" x="424.193" y="-113" width="34.3083" height="464" transform="rotate(44.3222 424.193 -113)" fill="#5063EE"/>
<rect opacity="0.4" x="831.193" y="591" width="34.3083" height="464" transform="rotate(44.3222 831.193 591)" fill="#5063EE"/>
<rect opacity="0.4" x="1236.19" y="-178" width="34.3083" height="464" transform="rotate(44.3222 1236.19 -178)" fill="#5063EE"/>
<rect x="672.972" y="-288" width="20.4484" height="623.983" transform="rotate(44.3222 672.972 -288)" fill="#515360"/>
<rect x="1252.34" y="-121" width="20.4484" height="363.408" transform="rotate(44.3222 1252.34 -121)" fill="#515360"/>
<rect x="1505.91" y="412" width="20.4484" height="470.501" transform="rotate(44.3222 1505.91 412)" fill="#515360"/>
<rect opacity="0.4" x="1550.19" y="297" width="34.3083" height="464" transform="rotate(44.3222 1550.19 297)" fill="#5063EE"/>
<rect x="126.973" y="588" width="20.4484" height="279.668" transform="rotate(44.3222 126.973 588)" fill="#515360"/>
<rect x="822.402" y="546" width="20.4484" height="279.668" transform="rotate(44.3222 822.402 546)" fill="#515360"/>
<circle opacity="0.21" cx="462" cy="67" r="51" fill="#728CB2"/>
<circle opacity="0.21" cx="78.5" cy="694.5" r="87.5" fill="#728CB2"/>
<circle opacity="0.21" cx="490" cy="905" r="123" fill="#728CB2"/>
<circle opacity="0.21" cx="1367" cy="412" r="123" fill="#728CB2"/>
</svg>
