<svg width="43" height="43" viewBox="0 0 43 43" fill="none" xmlns="http://www.w3.org/2000/svg">
<rect width="43" height="43" rx="5" fill="#EEEEEE"/>
<g clip-path="url(#clip0_40_6)">
<path d="M11.4601 17.8338C12.1229 15.8284 13.4021 14.0836 15.1153 12.8482C16.8284 11.6129 18.8879 10.9501 20.9999 10.9544C23.3941 10.9544 25.5588 11.8044 27.2588 13.1956L32.2058 8.25C29.1911 5.62208 25.3278 4 20.9999 4C14.2991 4 8.53043 7.82217 5.75659 13.4208L11.4601 17.8338Z" fill="#EA4335"/>
<path d="M26.7234 29.5184C25.1792 30.5143 23.2185 31.0456 21 31.0456C18.8964 31.0499 16.8447 30.3924 15.1354 29.1662C13.4261 27.94 12.1458 26.2071 11.4758 24.213L5.75244 28.5579C7.15671 31.4002 9.3299 33.7917 12.0252 35.4607C14.7205 37.1298 17.8298 38.0095 21 38C25.1551 38 29.1246 36.5224 32.0982 33.75L26.7248 29.5184H26.7234Z" fill="#34A853"/>
<path d="M32.0982 33.75C35.2078 30.8486 37.2265 26.5306 37.2265 21C37.2265 19.9941 37.0721 18.9132 36.8412 17.9088H21V24.4779H30.1177C29.6686 26.6865 28.4602 28.3964 26.7248 29.5184L32.0982 33.75Z" fill="#4A90E2"/>
<path d="M11.4759 24.2131C11.1293 23.1774 10.9533 22.0922 10.9546 21.0001C10.9546 19.8922 11.1317 18.8283 11.4603 17.8338L5.75683 13.4209C4.59003 15.7764 3.98855 18.3715 4.00016 21.0001C4.00016 23.7201 4.63058 26.2842 5.75258 28.558L11.4759 24.2131Z" fill="#FBBC05"/>
</g>
<defs>
<clipPath id="clip0_40_6">
<rect x="4" y="4" width="34" height="34" fill="white"/>
</clipPath>
</defs>
</svg>
